<svg width="166" height="85" viewBox="0 0 166 85" fill="none" xmlns="http://www.w3.org/2000/svg">
<g filter="url(#filter0_d_10_139)">
<path d="M4.5 52.68L5.88 33.57L7.38 32.25L23.67 33.33L23.49 36.15L8.64 35.19L7.47 51.3L21.75 50.58L21.24 45.15L12.87 44.79L12.99 41.94L22.59 42.39L23.94 43.65L24.72 51.78L23.4 53.34L6 54.18L4.5 52.68ZM29.1766 52.38L27.8566 50.85L28.5766 40.56L29.9266 39.27L39.8866 38.85L41.3566 40.23L41.6566 51.57L40.1566 53.01L29.1766 52.38ZM38.8066 50.1L38.5966 41.73L31.3066 42.03L30.7966 49.65L38.8066 50.1ZM45.259 45.63L61.789 44.37L61.999 46.83L45.439 48.06L45.259 45.63ZM81.8086 38.1L76.3786 47.7L73.8586 47.58L69.7786 38.7L67.1986 53.13L64.4086 52.62L67.7986 33.75L70.4386 33.42L75.2986 43.89L81.2986 33.3L83.9086 33.75L87.3286 52.62L84.5386 53.13L81.8086 38.1ZM92.2641 52.71L90.9441 51.3L90.6141 33.36L93.4341 33.27L93.7641 49.95L104.864 50.79L106.454 32.76L109.244 33L107.564 52.41L106.034 53.7L92.2641 52.71ZM111.635 51.21L128.405 49.74L127.055 43.65L114.065 45.15L112.505 43.71L112.925 33.72L114.455 32.37L130.265 33.84L130.025 36.66L115.685 35.34L115.385 42.15L127.985 40.74L129.515 41.82L131.525 50.7L130.235 52.44L111.905 54L111.635 51.21ZM134.823 53.43L135.843 32.82L138.693 32.97L137.643 53.58L134.823 53.43ZM141.551 52.59L143.591 33.57L145.181 32.31L160.631 34.59L160.241 37.41L146.231 35.34L144.551 51.12L161.321 49.32L161.621 52.14L143.141 54.12L141.551 52.59Z" fill="#002F39"/>
</g>
<defs>
<filter id="filter0_d_10_139" x="-2" y="0" width="171" height="93" filterUnits="userSpaceOnUse" color-interpolation-filters="sRGB">
<feFlood flood-opacity="0" result="BackgroundImageFix"/>
<feColorMatrix in="SourceAlpha" type="matrix" values="0 0 0 0 0 0 0 0 0 0 0 0 0 0 0 0 0 0 127 0" result="hardAlpha"/>
<feOffset dy="4"/>
<feGaussianBlur stdDeviation="2"/>
<feComposite in2="hardAlpha" operator="out"/>
<feColorMatrix type="matrix" values="0 0 0 0 0.458824 0 0 0 0 0.929412 0 0 0 0 0.917647 0 0 0 1 0"/>
<feBlend mode="normal" in2="BackgroundImageFix" result="effect1_dropShadow_10_139"/>
<feBlend mode="normal" in="SourceGraphic" in2="effect1_dropShadow_10_139" result="shape"/>
</filter>
</defs>
</svg>
